<svg xmlns="http://www.w3.org/2000/svg" viewBox="0 0 463.66 139.59"><defs><style>.cls-1,.cls-2{fill:#fff;}.cls-1{stroke:#fff;stroke-miterlimit:10;stroke-width:2.64px;}</style></defs><title>rovely-logo-white</title><g id="Layer_2" data-name="Layer 2"><g id="Layer_1-2" data-name="Layer 1"><path class="cls-1" d="M83.61,2.81H43.17c-3.65,0-5.11,1.31-5.84,5L30,49.44,3.81,58.23l23,9.31-6,34c-.58,3.65.44,5,4.09,5h8.47c3.65,0,5.11-1.31,5.84-5L45.36,67H57.19c4.82,0,8.17.58,10.07,1.9s3.21,4.09,4.53,8.32l7.74,24.82c1,3.5,2.77,4.38,9.2,4.38h8.47c3.36,0,4.53-2.19,3.36-5L89.89,70.7a17.76,17.76,0,0,0-3.5-6.28C100.11,60,108.14,50.55,110.47,36.1,114.41,15.8,103.9,2.81,83.61,2.81Zm7.88,32.12c-1.61,9.78-7.88,15-17.81,15H48.28l5.26-30.07h25.4C88.72,19.89,93.39,25.44,91.49,34.93Z"/><path class="cls-2" d="M119.35,59.15c3.39-19,16.83-29.64,38.75-29.64s32,11.94,28.57,31.37l-3.11,18.56c-3.39,19-16.55,29.21-38.75,29.21-21.64,0-32-11.8-28.57-30.94Zm46.25.43Q167.3,48.78,155,48.78c-8.2,0-13,3.6-14.29,10.79l-3.25,19c-1.27,7.2,2.12,10.79,10.47,10.79s13-3.6,14.28-10.79Z"/><path class="cls-2" d="M264.32,31.66c5.09,0,5.8,1.44,3.11,6.19l-35.5,63.89c-2.12,3.6-3.82,4.75-7.78,4.75h-8.49c-4,0-5.66-1.15-6.36-4.75l-13-63.89c-.71-4.75.42-6.19,5.52-6.19H210c6.08,0,7.64,1.15,8.06,5.32L223,65a85.41,85.41,0,0,1,.57,14.39L223.45,82h1a91.55,91.55,0,0,1,6.36-17l14.28-27.92c2.26-4.6,3.82-5.47,9.9-5.47Z"/><path class="cls-2" d="M273.94,59c3.39-19,17.25-29.5,39.18-29.5Q328,29.5,336,36.84c5.23,5,7.21,11.51,5.94,19.72C339.56,70.23,328.25,77,307.74,77a121.32,121.32,0,0,1-15.56-1.29l-.57,3.74c-1.42,7.63,2.12,11.37,10.61,11.37,6.51,0,11.46-1.87,15-5.76,3.25-3.45,4.67-4,8.49-1.87l6.36,3.88c3.25,2,3.39,4.89.71,8.49-6.65,8.78-18,13.09-33.66,13.09-11.46,0-19.52-3.17-24-9.5S269.13,84.76,271,75Zm36.35-12.23c-7.92,0-13.44,4.46-15,11.51l-.42,1.87a131.31,131.31,0,0,0,13.72,1.15c7.5,0,11.74-2.3,12.59-6.76C321.88,49.5,318.2,46.77,310.28,46.77Z"/><path class="cls-2" d="M367.84,101.17c-.71,4-2.26,5.32-6.22,5.32H350.73c-4,0-5-1.29-4.24-5.32L363,5.32c.71-4,2.26-5.32,6.22-5.32h10.89c4,0,5,1.3,4.24,5.32Z"/><path class="cls-2" d="M459.35,31.66c3.82,0,4.81,1.3,4.1,5.32l-12.16,70.95c-3.68,21.15-16.26,31.66-37.76,31.66-14.14,0-23.2-4.61-27.3-13.82-1.84-3.6-.57-6.33,3.54-8.35l8.06-3.88c4.53-2.16,6.08-1.58,7.92,1.87s5.52,5.47,10.61,5.47c7.5,0,11.88-3.89,13.29-11.66l1-5.9a69.61,69.61,0,0,1-13.29,1c-20.37,0-28.43-11.94-25-31.52L398.39,37c.71-4,2.26-5.32,6.22-5.32H415.5c4,0,5,1.3,4.24,5.32l-6.37,36.84c-1.27,7.2,2.26,10.79,10.33,10.79a53.18,53.18,0,0,0,10.32-1L442.09,37c.71-4,2.26-5.32,6.22-5.32Z"/></g></g></svg>