<svg xmlns="http://www.w3.org/2000/svg" viewBox="0 0 2641.31 800.61"><defs><style>.cls-1,.cls-2{fill:#043d5d;}.cls-1{stroke:#fff;stroke-miterlimit:10;stroke-width:2.64px;}</style></defs><title>rovely-logo-blue</title><g id="Layer_2" data-name="Layer 2"><g id="Layer_1-2" data-name="Layer 1"><path class="cls-1" d="M461.52,16.12H229.58c-20.93,0-29.31,7.54-33.49,28.47L154,283.58,3.81,334l131.94,53.38L101.47,582.15c-3.35,20.94,2.51,28.47,23.44,28.47h48.57c20.93,0,29.31-7.54,33.49-28.47l35.17-197.61H310c27.63,0,46.89,3.35,57.77,10.89,10,7.54,18.42,23.45,26,47.73L438.07,585.5c5.86,20.1,15.91,25.12,52.75,25.12h48.57c19.26,0,26-12.56,19.26-28.47L497.52,405.48c-5.86-15.91-12.56-28.47-20.1-36C556.14,344.35,602.19,289.92,615.59,207,638.19,90.64,577.91,16.12,461.52,16.12Zm45.21,184.21c-9.21,56.1-45.21,86.24-102.15,86.24H258.88L289,114.09h145.7C490.82,114.09,517.62,145.9,506.73,200.33Z"/><path class="cls-2" d="M666.52,339.23c19.47-108.95,96.54-170,222.27-170s183.33,68.51,163.86,179.93L1034.81,455.6c-19.47,109-94.91,167.55-222.27,167.55-124.11,0-183.33-67.68-163.86-177.45Zm265.26,2.48q9.73-61.9-60.84-61.9c-47,0-74.63,20.63-81.93,61.9L770.36,450.65c-7.3,41.27,12.17,61.9,60,61.9,47,0,74.63-20.63,81.93-61.9Z"/><path class="cls-2" d="M1498,181.58c29.2,0,33.26,8.25,17.84,35.49L1312.22,583.54c-12.17,20.63-21.9,27.24-44.62,27.24h-48.67c-22.72,0-32.45-6.6-36.51-27.24L1107.8,217.07c-4.06-27.24,2.43-35.49,31.63-35.49h47.05c34.88,0,43.8,6.6,46.24,30.54l28.39,161c4.06,25.59,4.06,62.73,3.24,82.53l-.81,14.86h5.68c9.73-35.49,21.9-68.51,36.51-97.39l81.93-160.12c13-26.41,21.9-31.37,56.78-31.37Z"/><path class="cls-2" d="M1553.13,338.4c19.47-108.95,99-169.2,224.7-169.2q85.18,0,131.42,42.09c30,28.89,41.37,66,34.07,113.08-13.79,78.41-78.68,117.2-196.31,117.2-22.71,0-52.73-2.48-89.23-7.43l-3.24,21.46c-8.12,43.74,12.17,65.21,60.84,65.21,37.31,0,65.71-10.73,86-33C1820,468,1828.13,464.68,1850,477.07l36.5,22.28c18.66,11.56,19.47,28.07,4.06,48.7-38.13,50.35-103,75.1-193.07,75.1-65.71,0-111.94-18.16-137.9-54.47S1525.55,486.15,1536.1,430Zm208.48-70.16c-45.43,0-77.07,25.59-86,66L1673.19,345c34.88,4.12,60.84,6.6,78.68,6.6,43,0,67.33-13.2,72.2-38.79C1828.13,283.93,1807,268.25,1761.61,268.25Z"/><path class="cls-2" d="M2091.74,580.24c-4.06,23.11-13,30.54-35.69,30.54h-62.46c-22.71,0-28.39-7.43-24.34-30.54l94.91-549.7c4.06-23.11,13-30.54,35.7-30.54h62.46c22.72,0,28.39,7.43,24.34,30.54Z"/><path class="cls-2" d="M2616.57,181.58c21.91,0,27.58,7.43,23.52,30.54L2570.33,619c-21.09,121.33-93.29,181.58-216.59,181.58-81.12,0-133-26.41-156.56-79.24-10.54-20.63-3.24-36.32,20.28-47.87l46.24-22.28c26-12.38,34.88-9.08,45.43,10.73,11.35,20.63,31.64,31.37,60.84,31.37,43,0,68.14-22.29,76.25-66.85l5.67-33.84c-20.28,4.13-46.24,5.78-76.25,5.78-116.81,0-163-68.51-143.58-180.76l34.88-205.52c4.06-23.11,13-30.54,35.7-30.54h62.46c22.71,0,28.39,7.43,24.34,30.54l-36.51,211.29c-7.3,41.27,13,61.9,59.22,61.9a305,305,0,0,0,59.22-5.78l46.24-267.42c4.06-23.11,13-30.54,35.7-30.54Z"/></g></g></svg>